<svg height="190" width="1000" viewBox="0 0 51 10.45" xmlns="http://www.w3.org/2000/svg" data-sanitized-data-name="Layer 2" data-name="Layer 2" id="Layer_2">
  <defs>
    <style>
      .cls-1 {
        fill: #fff;
      }
    </style>
  </defs>
  <g id="art">
    <g>
      <g>
        <path d="m21.77,4.33c-1.67-.36-2.25-.59-2.25-1.31,0-.88.74-1.49,2.09-1.49,1.22,0,1.91.45,2.24,1.15.04.08,0,.24.35.24h1.39C25.31,1.31,24.14,0,21.6,0c-1.93,0-3.71,1.05-3.71,3.06,0,1.89,1.53,2.44,3.49,2.87,1.88.42,2.7.58,2.7,1.52s-.78,1.47-2.14,1.47c-1.6,0-2.38-.61-2.68-1.77h-1.65c.27,1.75,1.52,3.3,4.34,3.3,1.8,0,3.77-.87,3.77-3.07,0-1.95-1.4-2.48-3.95-3.04Z" class="cls-1"></path>
        <path d="m39.22,6.42c1.6-.3,2.54-1.39,2.54-3.04,0-1.9-1.24-3.2-3.43-3.2h-3.74s-1.3,0-1.3,0h-.36v5.97c0,1.96-1.02,2.74-2.42,2.74s-2.42-.78-2.42-2.74V.17h-1.66v6.07c0,2.81,1.76,4.2,4.08,4.2,2.32,0,4.08-1.39,4.08-4.2V1.73s1.2,0,1.2,0h1.09s1.28,0,1.28,0c1.33,0,1.96.68,1.96,1.66s-.62,1.67-1.96,1.67h-1.71v1.02c0,.18,0,.43.34.43h.57s2.89,3.77,2.89,3.77h2.01s-3.02-3.85-3.02-3.85Z" class="cls-1"></path>
        <path d="m13.2,4.33c-1.67-.36-2.25-.59-2.25-1.31,0-.88.74-1.49,2.09-1.49,1.22,0,1.91.45,2.24,1.15.04.08.09.24.36.24h1.39C16.73,1.31,15.57,0,13.03,0c-1.93,0-3.71,1.05-3.71,3.06,0,1.89,1.53,2.44,3.49,2.87,1.88.42,2.7.58,2.7,1.52,0,.86-.65,1.46-1.8,1.46-1.33,0-3.74,0-4.67,0s-.87-.34-.87-1.27c0-.94,0-3.27,0-3.27,0-2.81-1.76-4.2-4.08-4.2S0,1.56,0,4.37v6.07h1.66v-3.71s4.85,0,4.85,0v2.56s-.09,1.15,1.66,1.15h5.6c1.69-.01,3.39-1.02,3.39-3.07,0-1.95-1.4-2.48-3.95-3.04Zm-6.69.78H1.66s0-.63,0-.63c0-1.96,1.02-2.74,2.42-2.74,1.4,0,2.42.78,2.42,2.74v.63Z" class="cls-1"></path>
      </g>
      <path d="m49.2,9.43c.11,0,.24-.02.4-.05.89-.77,1.4-1.88,1.4-3.06,0-2.23-1.82-4.05-4.05-4.05s-4.05,1.82-4.05,4.05c0,1.34.65,2.57,1.75,3.33v-4.06h1.24v4.63c.66.18,1.35.19,2.02.03-.46-.35-.7-.93-.7-1.67v-1.81h-.86v-1.18h.86v-1.02l1.24-.27v1.3h1.9v1.18h-1.9v1.76c0,.6.25.9.76.9Zm-3.94-4.46c-.43,0-.76-.32-.76-.74s.33-.73.76-.73.77.31.77.73-.32.74-.77.74Z" class="cls-1"></path>
    </g>
  </g>
</svg>