<svg height="10" width="51" xml:space="preserve" style="enable-background:new 0 0 51 10.4;" viewBox="0 0 51 10.4" y="0px" x="0px" xmlns:xlink="http://www.w3.org/1999/xlink" xmlns="http://www.w3.org/2000/svg" id="Layer_2_00000150793765680914966680000001284416629790506402_" version="1.1">
<g id="art">
	<g>
		<g>
			<path d="M21.8,4.3C20.1,4,19.5,3.7,19.5,3c0-0.9,0.7-1.5,2.1-1.5c1.2,0,1.9,0.5,2.2,1.1c0,0.1,0,0.2,0.4,0.2h1.4
				c-0.3-1.6-1.5-2.9-4-2.9c-1.9,0-3.7,1-3.7,3.1c0,1.9,1.5,2.4,3.5,2.9c1.9,0.4,2.7,0.6,2.7,1.5s-0.8,1.5-2.1,1.5
				c-1.6,0-2.4-0.6-2.7-1.8h-1.6c0.3,1.7,1.5,3.3,4.3,3.3c1.8,0,3.8-0.9,3.8-3.1C25.7,5.4,24.3,4.9,21.8,4.3L21.8,4.3z"></path>
			<path d="M39.2,6.4c1.6-0.3,2.5-1.4,2.5-3c0-1.9-1.2-3.2-3.4-3.2h-3.7h-1.3h-0.4v6c0,2-1,2.7-2.4,2.7s-2.4-0.8-2.4-2.7v-6h-1.7
				v6.1c0,2.8,1.8,4.2,4.1,4.2s4.1-1.4,4.1-4.2V1.7h1.2h1.1h1.3c1.3,0,2,0.7,2,1.7s-0.6,1.7-2,1.7h-1.7v1c0,0.2,0,0.4,0.3,0.4h0.6
				l2.9,3.8h2L39.2,6.4L39.2,6.4z"></path>
			<path d="M13.2,4.3C11.5,4,10.9,3.7,10.9,3c0-0.9,0.7-1.5,2.1-1.5c1.2,0,1.9,0.5,2.2,1.1c0,0.1,0.1,0.2,0.4,0.2H17
				C16.7,1.3,15.6,0,13,0c-1.9,0-3.7,1-3.7,3.1c0,1.9,1.5,2.4,3.5,2.9c1.9,0.4,2.7,0.6,2.7,1.5c0,0.9-0.6,1.5-1.8,1.5
				c-1.3,0-3.7,0-4.7,0S8.2,8.6,8.2,7.6c0-0.9,0-3.3,0-3.3c0-2.8-1.8-4.2-4.1-4.2S0,1.6,0,4.4v6.1h1.7V6.7h4.8v2.6
				c0,0-0.1,1.1,1.7,1.1h5.6c1.7,0,3.4-1,3.4-3.1C17.2,5.4,15.8,4.9,13.2,4.3L13.2,4.3z M6.5,5.1H1.7V4.5c0-2,1-2.7,2.4-2.7
				s2.4,0.8,2.4,2.7L6.5,5.1L6.5,5.1z"></path>
		</g>
		<path d="M49.2,9.4c0.1,0,0.2,0,0.4-0.1C50.5,8.6,51,7.5,51,6.3c0-2.2-1.8-4.1-4-4.1s-4,1.8-4,4.1c0,1.3,0.7,2.6,1.8,3.3V5.6h1.2
			v4.6c0.7,0.2,1.3,0.2,2,0c-0.5-0.4-0.7-0.9-0.7-1.7V6.8h-0.9V5.6h0.9v-1l1.2-0.3v1.3h1.9v1.2h-1.9v1.8C48.5,9.1,48.7,9.4,49.2,9.4
			L49.2,9.4z M45.3,5c-0.4,0-0.8-0.3-0.8-0.7s0.3-0.7,0.8-0.7S46,3.8,46,4.2S45.7,5,45.3,5z"></path>
	</g>
</g>
</svg>
