<svg xmlns="http://www.w3.org/2000/svg" xmlns:xlink="http://www.w3.org/1999/xlink" width="604.245" height="116.488" viewBox="0 0 604.245 116.488">
  <defs>
    <clipPath id="clip-path">
      <rect id="Rectangle_668" data-name="Rectangle 668" width="604.245" height="116.488" fill="none"/>
    </clipPath>
  </defs>
  <g id="sequans-logo-blue" clip-path="url(#clip-path)">
    <path id="Tracé_741" data-name="Tracé 741" d="M131.909,31.978c-6.806,0-9.995,2.414-9.995,8.1,0,4.483,2.759,6.722,8.185,6.722h17.236c13.784,0,19.732,4.572,19.732,17.5,0,13.017-6.976,18.537-21.624,18.537h-34.65V71.809h32.58c6.894,0,10.08-1.638,10.08-6.985,0-5.518-2.927-7.153-9.223-7.153H128.894c-14.133,0-20.6-5.347-20.6-17.761,0-13.452,6.984-18.967,21.723-18.967h34.036V31.978Z" transform="translate(38.588 7.463)" fill="#1176bb"/>
    <path id="Tracé_742" data-name="Tracé 742" d="M172.462,46.117h36.02V56.893h-36.1c.083,11.123,4.48,15.176,14.731,15.176h21.372V82.845H186.507c-7.5,0-13.266-.6-19.3-5.432-6.377-5.09-9.475-13.193-9.475-24.4,0-21.9,9.214-32.07,29.123-32.07h21.631V31.716H187.11c-9.387,0-14.13,4.658-14.648,14.4" transform="translate(56.203 7.462)" fill="#1176bb"/>
    <path id="Tracé_743" data-name="Tracé 743" d="M268.866,58.016c0,10.95,3.193,15.518,13.962,15.518S296.7,68.965,296.7,58.016V20.943h13.009V58.36c0,7.932-.854,13.361-3.619,16.638-5.081,6.037-12.495,8.535-23.266,8.535s-18.274-2.5-23.359-8.535c-2.837-3.362-3.533-8.794-3.533-16.638V20.943h12.93Z" transform="translate(91.197 7.463)" fill="#1176bb"/>
    <path id="Tracé_744" data-name="Tracé 744" d="M370.2,20.942l25.344,44.485-.61-44.485h13.281v61.9H393.122L366.5,36.03l.6,46.814H353.74v-61.9Z" transform="translate(126.048 7.463)" fill="#1176bb"/>
    <path id="Tracé_745" data-name="Tracé 745" d="M425.783,31.978c-6.809,0-10,2.414-10,8.1,0,4.483,2.756,6.722,8.191,6.722H441.21c13.784,0,19.732,4.572,19.732,17.5,0,13.017-6.976,18.537-21.624,18.537H404.662V71.809h32.586c6.894,0,10.083-1.638,10.083-6.985,0-5.518-2.93-7.153-9.219-7.153H422.768c-14.138,0-20.6-5.347-20.6-17.761,0-13.452,6.977-18.967,21.716-18.967h34.045V31.978Z" transform="translate(143.303 7.463)" fill="#1176bb"/>
    <path id="Tracé_746" data-name="Tracé 746" d="M339.07,20.942H325.282l-26.2,61.9h13.786l5.52-14.743h22.32l-2.068-11.035h-16.03l9.045-23.794,9.4,23.794h-.018l5.1,13.259h-.007l4.831,12.519H365.44Z" transform="translate(106.573 7.463)" fill="#1176bb"/>
    <path id="Tracé_747" data-name="Tracé 747" d="M258.637,73.851c3.535-5.173,5.344-12.417,5.344-21.643,0-21.9-9.824-32.156-30.847-32.156s-30.859,10.259-30.859,32.156,9.823,32.248,30.859,32.248A43.493,43.493,0,0,0,245.286,82.9l-4.3-10.689a18.5,18.5,0,0,1-7.849,1.553c-11.389,0-16.638-6.982-16.638-21.555s5.249-21.555,16.638-21.555c11.456,0,16.717,6.985,16.717,21.555,0,9.451-2.252,15.659-6.934,18.891l8.889,11.407.632.656h15.6Z" transform="translate(72.076 7.146)" fill="#1176bb"/>
    <path id="Tracé_748" data-name="Tracé 748" d="M116.439,106.744a9.743,9.743,0,0,1-9.744,9.744H9.736A9.738,9.738,0,0,1,0,106.744v-97A9.74,9.74,0,0,1,9.736,0H106.7a9.744,9.744,0,0,1,9.744,9.745Z" transform="translate(0 0)" fill="#1176bb"/>
    <path id="Tracé_749" data-name="Tracé 749" d="M99.888,44.791a1.951,1.951,0,0,0,1.941-1.938V33.79a1.951,1.951,0,0,0-1.941-1.941H96.736V9.977a1.421,1.421,0,0,0-2.429-1.009s-9.9,9.911-22.876,22.888c-.015,0-.039-.007-.058-.007H62.317A1.933,1.933,0,0,0,60.38,33.79v9.121l-7.746,7.751c-2.219-2.222-5.227-5.227-7.837-7.837V33.79a1.94,1.94,0,0,0-1.934-1.941H33.809a1.941,1.941,0,0,0-1.941,1.941v9.063a1.943,1.943,0,0,0,1.941,1.941h8.938c2.612,2.616,5.649,5.652,7.88,7.88-2.595,2.582-5.168,5.161-7.709,7.7H33.809a1.94,1.94,0,0,0-1.941,1.941v9.116c-13,13.009-22.93,22.927-22.93,22.927a1.513,1.513,0,0,0-.41,1.016,1.367,1.367,0,0,0,.11.547,1.427,1.427,0,0,0,1.312.888H31.868v3.1a1.939,1.939,0,0,0,1.941,1.938h9.055A1.938,1.938,0,0,0,44.8,99.908v-3.1H60.38v3.1a1.931,1.931,0,0,0,1.937,1.938h9.055a1.937,1.937,0,0,0,1.941-1.938v-9.06a1.938,1.938,0,0,0-1.941-1.941H62.317a1.931,1.931,0,0,0-1.937,1.941v3.11H44.8v-3.11a1.938,1.938,0,0,0-1.934-1.941H33.809a1.94,1.94,0,0,0-1.941,1.941v3.11H13.386c1.438-1.438,9.576-9.592,20.62-20.639h8.857A1.937,1.937,0,0,0,44.8,71.382v-8.86c2.549-2.555,5.173-5.173,7.837-7.841,2.424,2.429,5.039,5.048,7.746,7.746v8.954a1.93,1.93,0,0,0,1.937,1.937h8.94c6.848,6.848,13.3,13.306,17.635,17.631v8.959a1.937,1.937,0,0,0,1.933,1.938h9.063a1.952,1.952,0,0,0,1.941-1.938v-9.06a1.946,1.946,0,0,0-1.941-1.941H96.736V73.319h3.152a1.948,1.948,0,0,0,1.941-1.937V62.318a1.955,1.955,0,0,0-1.941-1.948l-3.152.007V44.794Zm-6,15.586H90.825a1.937,1.937,0,0,0-1.933,1.941v9.064a1.936,1.936,0,0,0,1.933,1.937h3.067V88.907h-3.04c-3.8-3.8-10.315-10.339-17.539-17.554V62.318a1.938,1.938,0,0,0-1.941-1.941H62.336c-2.624-2.634-5.234-5.237-7.7-7.7l7.882-7.88h8.85a1.941,1.941,0,0,0,1.941-1.941V33.995L93.891,13.41V31.849H90.825a1.939,1.939,0,0,0-1.933,1.941v9.063a1.941,1.941,0,0,0,1.933,1.941h3.067Z" transform="translate(3.039 3.047)" fill="#f1f1f2"/>
  </g>
</svg>
